<svg xmlns="http://www.w3.org/2000/svg" version="1.1" xmlns:xlink="http://www.w3.org/1999/xlink" xmlns:svgjs="http://svgjs.com/svgjs" width="1440" height="560" preserveAspectRatio="none" viewBox="0 0 1440 560"><g mask="url(&quot;#SvgjsMask1016&quot;)" fill="none"><rect width="1440" height="560" x="0" y="0" fill="rgba(224, 225, 207, 1)"></rect><path d="M1426.7 144.5a7.79 7.79 0 1 0 12.2-9.7z" fill="rgba(238, 218, 59, 1)"></path><path d="M940.13 418.87L955.18 418.87L955.18 451.04L940.13 451.04z" stroke="rgba(238, 55, 47, 1)"></path><path d="M951.88 256.26L983.52 256.26L983.52 261.41L951.88 261.41z" fill="rgba(15, 18, 49, 1)"></path><path d="M570.29 190.66a23.85 23.85 0 1 0-17.03-44.55z" stroke="rgba(15, 18, 49, 1)"></path><path d="M43.49 99.86 a22.15 22.15 0 1 0 44.3 0 a22.15 22.15 0 1 0 -44.3 0z" stroke="rgba(15, 18, 49, 1)"></path><path d="M274.37 546.3 a4.77 4.77 0 1 0 9.54 0 a4.77 4.77 0 1 0 -9.54 0z" stroke="rgba(15, 18, 49, 1)"></path><path d="M1408.97 284.19L1427.4 284.19L1427.4 302.62L1408.97 302.62z" fill="rgba(15, 18, 49, 1)"></path><path d="M33.89 536.31 a38.95 38.95 0 1 0 77.9 0 a38.95 38.95 0 1 0 -77.9 0z" fill="rgba(15, 18, 49, 1)"></path><path d="M1033.22 128.59L1067.76 128.59L1067.76 183.27L1033.22 183.27z" stroke="rgba(15, 18, 49, 1)"></path><path d="M825.12 325.04L838.66 325.04L838.66 365.91L825.12 365.91z" stroke="rgba(15, 18, 49, 1)"></path><path d="M191.36 507.34 a9.91 9.91 0 1 0 19.82 0 a9.91 9.91 0 1 0 -19.82 0z" fill="rgba(15, 18, 49, 1)"></path><path d="M1226.61 6.64 a43.46 43.46 0 1 0 86.92 0 a43.46 43.46 0 1 0 -86.92 0z" stroke="rgba(15, 18, 49, 1)"></path><path d="M444.73 519.9L494.22 519.9L494.22 569.39L444.73 569.39z" stroke="rgba(238, 218, 59, 1)"></path><path d="M889.21 73.06a7.17 7.17 0 1 0-13.37 5.18z" stroke="rgba(238, 218, 59, 1)"></path><path d="M939.5 282.2 a17.73 17.73 0 1 0 35.46 0 a17.73 17.73 0 1 0 -35.46 0z" fill="rgba(238, 55, 47, 1)"></path><path d="M1444.71 480.12a47.88 47.88 0 1 0-61.23-73.63z" fill="rgba(238, 55, 47, 1)"></path><path d="M442.04 540.84 a7.05 7.05 0 1 0 14.1 0 a7.05 7.05 0 1 0 -14.1 0z" fill="rgba(238, 218, 59, 1)"></path><path d="M1003.71 305.62L1033.9 305.62L1033.9 335.81L1003.71 335.81z" stroke="rgba(238, 218, 59, 1)"></path><path d="M980.77 490.16a36.19 36.19 0 1 0-30.4 65.69z" fill="rgba(238, 55, 47, 1)"></path><path d="M1154.75 36.62a20.27 20.27 0 1 0-29.42-27.88z" fill="rgba(15, 18, 49, 1)"></path><path d="M453.18 270.49L481.68 270.49L481.68 298.99L453.18 298.99z" fill="rgba(15, 18, 49, 1)"></path><path d="M69.65 397.68L72.78 397.68L72.78 438.61L69.65 438.61z" fill="rgba(15, 18, 49, 1)"></path><path d="M447.03 467.94L479.57 467.94L479.57 470.93L447.03 470.93z" stroke="rgba(238, 218, 59, 1)"></path><path d="M299.93 64.55L337.91 64.55L337.91 102.53L299.93 102.53z" fill="rgba(15, 18, 49, 1)"></path><path d="M925.5 532.47L936.79 532.47L936.79 573.4L925.5 573.4z" fill="rgba(238, 218, 59, 1)"></path><path d="M72.23 362.45a9.23 9.23 0 1 0 11.2 14.68z" fill="rgba(238, 55, 47, 1)"></path><path d="M126.32 509.55a5.64 5.64 0 1 0-9.56 5.98z" fill="rgba(15, 18, 49, 1)"></path><path d="M934.75 199.61 a14.74 14.74 0 1 0 29.48 0 a14.74 14.74 0 1 0 -29.48 0z" stroke="rgba(238, 218, 59, 1)"></path><path d="M291.43 465.41L309.15 465.41L309.15 483.13L291.43 483.13z" fill="rgba(15, 18, 49, 1)"></path><path d="M124.56 281.59L164.22 281.59L164.22 322.94L124.56 322.94z" stroke="rgba(238, 218, 59, 1)"></path><path d="M795.09 244.44 a2.19 2.19 0 1 0 4.38 0 a2.19 2.19 0 1 0 -4.38 0z" fill="rgba(238, 218, 59, 1)"></path><path d="M704.57 469.89L756.54 469.89L756.54 481.15L704.57 481.15z" fill="rgba(15, 18, 49, 1)"></path><path d="M575.98 363.25a38.34 38.34 0 1 0-60.45-47.18z" fill="rgba(15, 18, 49, 1)"></path></g><defs><mask id="SvgjsMask1016"><rect width="1440" height="560" fill="#ffffff"></rect></mask></defs></svg>